<svg width="980" height="500" viewBox="0 0 980 500" fill="none" xmlns="http://www.w3.org/2000/svg">
    <style>
        svg {
            font-family: -apple-system, BlinkMacSystemFont, "Segoe UI", Roboto, "Helvetica Neue", sans-serif;
        }
        .svg-title {
            font-size: 18px;
            font-weight: 800;
            letter-spacing: -0.02em;
        }
        .svg-node-text {
            font-size: 13px;
            font-weight: 700;
        }
        .svg-node-sub {
            font-size: 10px;
            font-weight: 500;
        }
        .svg-label-text {
            font-size: 11px;
            font-weight: 600;
        }
    </style>
    <defs>
        <linearGradient id="d4-g-def" x1="0" y1="0" x2="1" y2="1">
            <stop offset="0%" stop-color="#ffffff"/><stop offset="100%" stop-color="#f1f5f9"/>
        </linearGradient>
        <linearGradient id="d4-g-run" x1="0" y1="0" x2="1" y2="1">
            <stop offset="0%" stop-color="#ecfdf5"/><stop offset="100%" stop-color="#d1fae5"/>
        </linearGradient>
        <linearGradient id="d4-g-pause" x1="0" y1="0" x2="1" y2="1">
            <stop offset="0%" stop-color="#fffbeb"/><stop offset="100%" stop-color="#fef3c7"/>
        </linearGradient>
        <linearGradient id="d4-g-shut" x1="0" y1="0" x2="1" y2="1">
            <stop offset="0%" stop-color="#fef2f2"/><stop offset="100%" stop-color="#fee2e2"/>
        </linearGradient>
        <linearGradient id="d4-g-del" x1="0" y1="0" x2="1" y2="1">
            <stop offset="0%" stop-color="#f8fafc"/><stop offset="100%" stop-color="#f1f5f9"/>
        </linearGradient>
        <filter id="d4-sh" x="-8%" y="-8%" width="116%" height="116%">
            <feDropShadow dx="0" dy="4" stdDeviation="5" flood-color="#0f172a" flood-opacity="0.04"/>
        </filter>
        <marker id="d4-arr-slate" markerWidth="8" markerHeight="8" refX="7" refY="3" orient="auto" markerUnits="strokeWidth">
            <path d="M0,0 L0,6 L7,3 z" fill="#64748b"/>
        </marker>
        <marker id="d4-arr-green" markerWidth="8" markerHeight="8" refX="7" refY="3" orient="auto" markerUnits="strokeWidth">
            <path d="M0,0 L0,6 L7,3 z" fill="#16a34a"/>
        </marker>
        <marker id="d4-arr-orange" markerWidth="8" markerHeight="8" refX="7" refY="3" orient="auto" markerUnits="strokeWidth">
            <path d="M0,0 L0,6 L7,3 z" fill="#ea580c"/>
        </marker>
        <marker id="d4-arr-red" markerWidth="8" markerHeight="8" refX="7" refY="3" orient="auto" markerUnits="strokeWidth">
            <path d="M0,0 L0,6 L7,3 z" fill="#ef4444"/>
        </marker>
        <marker id="d4-arr-red-dark" markerWidth="8" markerHeight="8" refX="7" refY="3" orient="auto" markerUnits="strokeWidth">
            <path d="M0,0 L0,6 L7,3 z" fill="#b91c1c"/>
        </marker>
    </defs>
    <rect width="980" height="500" fill="#ffffff" />
    <text class="svg-title" x="490" y="35" text-anchor="middle" fill="#0f172a">虚拟机生命周期状态流转图</text>
    
    <path d="M 60 165 L 130 165" stroke="#64748b" stroke-width="1.5" marker-end="url(#d4-arr-slate)"/>
    <path d="M 230 165 L 390 165" stroke="#64748b" stroke-width="1.5" marker-end="url(#d4-arr-slate)"/>
    <path d="M 520 155 L 680 155" stroke="#ea580c" stroke-width="1.5" marker-end="url(#d4-arr-orange)"/>
    <path d="M 680 175 L 525 175" stroke="#16a34a" stroke-width="1.5" marker-end="url(#d4-arr-green)"/>
    <path d="M 430 190 L 430 350" stroke="#ef4444" stroke-width="1.5" marker-end="url(#d4-arr-red)"/>
    <path d="M 480 190 L 480 350" stroke="#b91c1c" stroke-width="1.5" stroke-dasharray="3,3" marker-end="url(#d4-arr-red-dark)"/>
    <path d="M 720 190 L 515 350" stroke="#b91c1c" stroke-width="1.5" stroke-dasharray="3,3" fill="none" marker-end="url(#d4-arr-red-dark)"/>
    <path d="M 410 375 C 310 375, 310 165, 395 165" stroke="#16a34a" stroke-width="1.5" fill="none" marker-end="url(#d4-arr-green)"/>
    <path d="M 520 375 L 680 375" stroke="#64748b" stroke-width="1.5" marker-end="url(#d4-arr-slate)"/>
    <path d="M 810 375 L 860 375" stroke="#64748b" stroke-width="1.5" marker-end="url(#d4-arr-slate)"/>

    <g transform="translate(95, 165)">
        <rect x="-20" y="-9" width="40" height="18" rx="9" fill="#ffffff" stroke="#cbd5e1" stroke-width="1"/>
        <text class="svg-label-text" x="0" y="4" text-anchor="middle" fill="#475569">创建</text>
    </g>
    <g transform="translate(310, 165)">
        <rect x="-20" y="-9" width="40" height="18" rx="9" fill="#ffffff" stroke="#cbd5e1" stroke-width="1"/>
        <text class="svg-label-text" x="0" y="4" text-anchor="middle" fill="#475569">启动</text>
    </g>
    <g transform="translate(600, 155)">
        <rect x="-20" y="-9" width="40" height="18" rx="9" fill="#ffffff" stroke="#fed7aa" stroke-width="1"/>
        <text class="svg-label-text" x="0" y="4" text-anchor="middle" fill="#c2410c">暂停</text>
    </g>
    <g transform="translate(600, 175)">
        <rect x="-20" y="-9" width="40" height="18" rx="9" fill="#ffffff" stroke="#bbf7d0" stroke-width="1"/>
        <text class="svg-label-text" x="0" y="4" text-anchor="middle" fill="#15803d">恢复</text>
    </g>
    <g transform="translate(430, 235)">
        <rect x="-30" y="-9" width="60" height="18" rx="9" fill="#ffffff" stroke="#fca5a5" stroke-width="1"/>
        <text class="svg-label-text" x="0" y="4" text-anchor="middle" fill="#b91c1c">安全关机</text>
    </g>
    <g transform="translate(480, 305)">
        <rect x="-30" y="-9" width="60" height="18" rx="9" fill="#ffffff" stroke="#fee2e2" stroke-width="1"/>
        <text class="svg-label-text" x="0" y="4" text-anchor="middle" fill="#991b1b">强制断电</text>
    </g>
    <g transform="translate(620, 270)">
        <rect x="-30" y="-9" width="60" height="18" rx="9" fill="#ffffff" stroke="#fee2e2" stroke-width="1"/>
        <text class="svg-label-text" x="0" y="4" text-anchor="middle" fill="#991b1b">强制断电</text>
    </g>
    <g transform="translate(310, 270)">
        <rect x="-20" y="-9" width="40" height="18" rx="9" fill="#ffffff" stroke="#bbf7d0" stroke-width="1"/>
        <text class="svg-label-text" x="0" y="4" text-anchor="middle" fill="#15803d">启动</text>
    </g>
    <g transform="translate(595, 375)">
        <rect x="-20" y="-9" width="40" height="18" rx="9" fill="#ffffff" stroke="#cbd5e1" stroke-width="1"/>
        <text class="svg-label-text" x="0" y="4" text-anchor="middle" fill="#475569">删除</text>
    </g>

    <circle cx="50" cy="165" r="5" fill="#64748b" />
    <circle cx="870" cy="375" r="5" fill="#64748b" />
    <circle cx="870" cy="375" r="10" stroke="#64748b" stroke-width="1.5" fill="none" />

    <g transform="translate(130, 140)" filter="url(#d4-sh)">
        <rect width="100" height="50" rx="8" fill="url(#d4-g-def)" stroke="#cbd5e1" stroke-width="1.5"/>
        <text class="svg-node-text" x="50" y="29" text-anchor="middle" fill="#1e293b">已定义</text>
    </g>
    <g transform="translate(390, 140)" filter="url(#d4-sh)">
        <rect width="130" height="50" rx="8" fill="url(#d4-g-run)" stroke="#10b981" stroke-width="2"/>
        <text class="svg-node-text" x="65" y="29" text-anchor="middle" fill="#14532d">运行中</text>
    </g>
    <g transform="translate(680, 140)" filter="url(#d4-sh)">
        <rect width="130" height="50" rx="8" fill="url(#d4-g-pause)" stroke="#fbbf24" stroke-width="1.5"/>
        <text class="svg-node-text" x="65" y="29" text-anchor="middle" fill="#78350f">已暂停</text>
    </g>
    <g transform="translate(390, 350)" filter="url(#d4-sh)">
        <rect width="130" height="50" rx="8" fill="url(#d4-g-shut)" stroke="#f87171" stroke-width="1.5"/>
        <text class="svg-node-text" x="65" y="29" text-anchor="middle" fill="#7f1d1d">已关闭</text>
    </g>
    <g transform="translate(680, 350)" filter="url(#d4-sh)">
        <rect width="130" height="50" rx="8" fill="url(#d4-g-del)" stroke="#cbd5e1" stroke-width="1.5" stroke-dasharray="4,3"/>
        <text class="svg-node-text" x="65" y="29" text-anchor="middle" fill="#3f3f46">已删除</text>
    </g>
</svg>
