<svg width="980" height="420" viewBox="0 0 980 420" fill="none" xmlns="http://www.w3.org/2000/svg">
    <defs>
        <linearGradient id="d2-g-use" x1="0" y1="0" x2="1" y2="1">
            <stop offset="0%" stop-color="#ffffff"/><stop offset="100%" stop-color="#eff6ff"/>
        </linearGradient>
        <filter id="d2-sh" x="-10%" y="-10%" width="120%" height="120%">
            <feDropShadow dx="0" dy="3" stdDeviation="5" flood-color="#0f172a" flood-opacity="0.04"/>
        </filter>
    </defs>
    <rect width="980" height="420" fill="#ffffff" />
    <text x="490" y="35" text-anchor="middle" fill="#0f172a" font-family="-apple-system, BlinkMacSystemFont, sans-serif" font-size="18" font-weight="800">系统管理员整体用例图</text>

    <!-- Actor SVG Draw -->
    <g transform="translate(440, 120)" filter="url(#d2-sh)">
        <circle cx="50" cy="30" r="18" fill="#dbeafe" stroke="#2563eb" stroke-width="2" />
        <path d="M 50 48 L 50 100 M 25 70 L 75 70 M 50 100 L 30 140 M 50 100 L 70 140" stroke="#2563eb" stroke-width="3" stroke-linecap="round"/>
        <text x="50" y="165" text-anchor="middle" fill="#1e3a8a" font-family="-apple-system, BlinkMacSystemFont, sans-serif" font-size="13" font-weight="700">系统管理员</text>
    </g>

    <!-- Connections to Use Cases -->
    <path d="M 465 190 L 310 115" stroke="#94a3b8" stroke-width="1.2"/>
    <path d="M 465 190 L 310 215" stroke="#94a3b8" stroke-width="1.2"/>
    <path d="M 465 190 L 310 315" stroke="#94a3b8" stroke-width="1.2"/>
    <path d="M 515 190 L 670 115" stroke="#94a3b8" stroke-width="1.2"/>
    <path d="M 515 190 L 670 215" stroke="#94a3b8" stroke-width="1.2"/>
    <path d="M 515 190 L 670 315" stroke="#94a3b8" stroke-width="1.2"/>

    <!-- Use Case Ellipses -->
    <g transform="translate(150, 90)" filter="url(#d2-sh)">
        <rect width="160" height="50" rx="25" fill="url(#d2-g-use)" stroke="#3b82f6" stroke-width="1.5"/>
        <text x="80" y="29" text-anchor="middle" fill="#1e3a8a" font-family="-apple-system, BlinkMacSystemFont, sans-serif" font-size="13" font-weight="700">查看宿主机</text>
    </g>
    <g transform="translate(670, 90)" filter="url(#d2-sh)">
        <rect width="160" height="50" rx="25" fill="url(#d2-g-use)" stroke="#3b82f6" stroke-width="1.5"/>
        <text x="80" y="29" text-anchor="middle" fill="#1e3a8a" font-family="-apple-system, BlinkMacSystemFont, sans-serif" font-size="13" font-weight="700">管理网络</text>
    </g>
    <g transform="translate(150, 190)" filter="url(#d2-sh)">
        <rect width="160" height="50" rx="25" fill="url(#d2-g-use)" stroke="#3b82f6" stroke-width="1.5"/>
        <text x="80" y="29" text-anchor="middle" fill="#1e3a8a" font-family="-apple-system, BlinkMacSystemFont, sans-serif" font-size="13" font-weight="700">管理虚拟机</text>
    </g>
    <g transform="translate(670, 190)" filter="url(#d2-sh)">
        <rect width="160" height="50" rx="25" fill="url(#d2-g-use)" stroke="#3b82f6" stroke-width="1.5"/>
        <text x="80" y="29" text-anchor="middle" fill="#1e3a8a" font-family="-apple-system, BlinkMacSystemFont, sans-serif" font-size="13" font-weight="700">查看存储</text>
    </g>
    <g transform="translate(150, 290)" filter="url(#d2-sh)">
        <rect width="160" height="50" rx="25" fill="url(#d2-g-use)" stroke="#3b82f6" stroke-width="1.5"/>
        <text x="80" y="29" text-anchor="middle" fill="#1e3a8a" font-family="-apple-system, BlinkMacSystemFont, sans-serif" font-size="13" font-weight="700">管理镜像</text>
    </g>
    <g transform="translate(670, 290)" filter="url(#d2-sh)">
        <rect width="160" height="50" rx="25" fill="url(#d2-g-use)" stroke="#3b82f6" stroke-width="1.5"/>
        <text x="80" y="29" text-anchor="middle" fill="#1e3a8a" font-family="-apple-system, BlinkMacSystemFont, sans-serif" font-size="13" font-weight="700">管理快照</text>
    </g>
</svg>
